# MagicaVoxel @ Ephtracy

# group
o 

# material
mtllib tileland1.vox.mtl
usemtl palette

# normals
vn -1 0 0
vn 1 0 0
vn 0 0 1
vn 0 0 -1
vn 0 -1 0
vn 0 1 0

# texcoords
vt 0.556641 0.5
vt 0.560547 0.5
vt 0.947266 0.5
vt 0.955078 0.5

# verts
v -0.4 0 0.4
v -0.4 0 -0.4
v -0.4 0.1 0.3
v -0.4 0.1 -0.3
v -0.4 0.5 0.4
v -0.4 0.5 0.3
v -0.4 0.5 -0.3
v -0.4 0.5 -0.4
v -0.4 0.7 0.3
v -0.4 0.7 -0.3
v -0.4 0.8 0.4
v -0.4 0.8 -0.4
v 0.4 0 0.4
v 0.4 0 -0.4
v 0.4 0.1 0.3
v 0.4 0.1 -0.3
v 0.4 0.5 0.4
v 0.4 0.5 0.3
v 0.4 0.5 -0.3
v 0.4 0.5 -0.4
v 0.4 0.7 0.3
v 0.4 0.7 -0.3
v 0.4 0.8 0.4
v 0.4 0.8 -0.4
v -0.4 0 0.4
v -0.4 0.5 0.4
v -0.4 0.8 0.4
v -0.3 0.1 0.4
v -0.3 0.5 0.4
v -0.3 0.7 0.4
v 0.3 0.1 0.4
v 0.3 0.5 0.4
v 0.3 0.7 0.4
v 0.4 0 0.4
v 0.4 0.5 0.4
v 0.4 0.8 0.4
v -0.4 0 -0.4
v -0.4 0.5 -0.4
v -0.4 0.8 -0.4
v -0.3 0.1 -0.4
v -0.3 0.5 -0.4
v -0.3 0.7 -0.4
v 0.3 0.1 -0.4
v 0.3 0.5 -0.4
v 0.3 0.7 -0.4
v 0.4 0 -0.4
v 0.4 0.5 -0.4
v 0.4 0.8 -0.4
v -0.4 0 0.4
v 0.4 0 0.4
v -0.3 0 0.3
v 0.3 0 0.3
v -0.3 0 -0.3
v 0.3 0 -0.3
v -0.4 0 -0.4
v 0.4 0 -0.4
v -0.4 0.8 0.4
v 0.4 0.8 0.4
v -0.3 0.8 0.3
v 0.3 0.8 0.3
v -0.3 0.8 -0.3
v 0.3 0.8 -0.3
v -0.4 0.8 -0.4
v 0.4 0.8 -0.4

# faces
f 3/4/1 2/4/1 1/4/1
f 4/4/1 2/4/1 3/4/1
f 5/4/1 3/4/1 1/4/1
f 6/3/1 4/3/1 3/3/1
f 6/4/1 3/4/1 5/4/1
f 7/4/1 2/4/1 4/4/1
f 7/3/1 4/3/1 6/3/1
f 8/4/1 2/4/1 7/4/1
f 9/1/1 6/1/1 5/1/1
f 9/2/1 7/2/1 6/2/1
f 10/1/1 8/1/1 7/1/1
f 10/2/1 7/2/1 9/2/1
f 11/1/1 9/1/1 5/1/1
f 11/1/1 10/1/1 9/1/1
f 12/1/1 8/1/1 10/1/1
f 12/1/1 10/1/1 11/1/1
f 13/4/2 14/4/2 15/4/2
f 15/4/2 14/4/2 16/4/2
f 13/4/2 15/4/2 17/4/2
f 15/3/2 16/3/2 18/3/2
f 17/4/2 15/4/2 18/4/2
f 16/4/2 14/4/2 19/4/2
f 18/3/2 16/3/2 19/3/2
f 19/4/2 14/4/2 20/4/2
f 17/1/2 18/1/2 21/1/2
f 18/2/2 19/2/2 21/2/2
f 19/1/2 20/1/2 22/1/2
f 21/2/2 19/2/2 22/2/2
f 17/1/2 21/1/2 23/1/2
f 21/1/2 22/1/2 23/1/2
f 22/1/2 20/1/2 24/1/2
f 23/1/2 22/1/2 24/1/2
f 28/4/3 26/4/3 25/4/3
f 29/1/3 27/1/3 26/1/3
f 29/4/3 26/4/3 28/4/3
f 30/1/3 27/1/3 29/1/3
f 31/4/3 28/4/3 25/4/3
f 31/3/3 29/3/3 28/3/3
f 32/2/3 30/2/3 29/2/3
f 32/3/3 29/3/3 31/3/3
f 33/1/3 27/1/3 30/1/3
f 33/2/3 30/2/3 32/2/3
f 34/4/3 32/4/3 31/4/3
f 34/4/3 31/4/3 25/4/3
f 35/1/3 33/1/3 32/1/3
f 35/4/3 32/4/3 34/4/3
f 36/1/3 27/1/3 33/1/3
f 36/1/3 33/1/3 35/1/3
f 37/4/4 38/4/4 40/4/4
f 38/1/4 39/1/4 41/1/4
f 40/4/4 38/4/4 41/4/4
f 41/1/4 39/1/4 42/1/4
f 37/4/4 40/4/4 43/4/4
f 40/3/4 41/3/4 43/3/4
f 41/2/4 42/2/4 44/2/4
f 43/3/4 41/3/4 44/3/4
f 42/1/4 39/1/4 45/1/4
f 44/2/4 42/2/4 45/2/4
f 43/4/4 44/4/4 46/4/4
f 37/4/4 43/4/4 46/4/4
f 44/1/4 45/1/4 47/1/4
f 46/4/4 44/4/4 47/4/4
f 45/1/4 39/1/4 48/1/4
f 47/1/4 45/1/4 48/1/4
f 51/4/5 50/4/5 49/4/5
f 52/4/5 50/4/5 51/4/5
f 53/4/5 51/4/5 49/4/5
f 53/3/5 52/3/5 51/3/5
f 54/4/5 50/4/5 52/4/5
f 54/3/5 52/3/5 53/3/5
f 55/4/5 53/4/5 49/4/5
f 55/4/5 54/4/5 53/4/5
f 56/4/5 50/4/5 54/4/5
f 56/4/5 54/4/5 55/4/5
f 57/1/6 58/1/6 59/1/6
f 59/1/6 58/1/6 60/1/6
f 57/1/6 59/1/6 61/1/6
f 59/2/6 60/2/6 61/2/6
f 60/1/6 58/1/6 62/1/6
f 61/2/6 60/2/6 62/2/6
f 57/1/6 61/1/6 63/1/6
f 61/1/6 62/1/6 63/1/6
f 62/1/6 58/1/6 64/1/6
f 63/1/6 62/1/6 64/1/6
